<svg id="Layer_1" data-name="Layer 1" xmlns="http://www.w3.org/2000/svg" viewBox="0 0 61 49.71"><defs><style>.cls-1{fill:#fff;}</style></defs><title>camera-bottom</title><path class="cls-1" d="M51.09,9.59c-3.59-.74-4.48-2.4-5.49-5.24A6.24,6.24,0,0,0,40,0H21A6.26,6.26,0,0,0,15.4,4.36c-1,2.84-1.89,4.5-5.48,5.24C7.54,10.08,0,11.07,0,16.06V44.92a4.79,4.79,0,0,0,4.79,4.79H56.21A4.79,4.79,0,0,0,61,44.92V16.06C61,11.07,53.47,10.08,51.09,9.59Zm-20.27,36A16.94,16.94,0,1,1,47.76,28.65,17,17,0,0,1,30.83,45.58Z"/><path class="cls-1" d="M40.52,28.63a10,10,0,1,1-10-10A10,10,0,0,1,40.52,28.63Z"/></svg>