<svg id="Layer_1" data-name="Layer 1" xmlns="http://www.w3.org/2000/svg" viewBox="0 0 52.69 59"><defs><style>.cls-1{fill:#373a3c;}</style></defs><title>view-uploads</title><path class="cls-1" d="M34.65,40.14H9.44c-.82,0-1.49-.4-1.49-.9V37.58c0-.5.67-.9,1.49-.9H34.65c.82,0,1.49.4,1.49.9v1.67c0,.49-.67.9-1.49.9"/><path class="cls-1" d="M34.38,32.83H9.17c-.82,0-1.49-.4-1.49-.9V30.27c0-.5.67-.9,1.49-.9H34.38c.82,0,1.49.4,1.49.9v1.67c0,.49-.67.9-1.49.9"/><path class="cls-1" d="M34.38,25.36H9.16c-.82,0-1.49-.4-1.49-.9V22.79c0-.5.67-.9,1.49-.9H34.38c.82,0,1.49.4,1.49.9v1.67c0,.49-.67.9-1.49.9"/><path class="cls-1" d="M35.72,18.21H22.81a.84.84,0,0,1-.76-.9V15.65a.84.84,0,0,1,.76-.9H35.72a.84.84,0,0,1,.76.9v1.67a.84.84,0,0,1-.76.9"/><path class="cls-1" d="M44.51,47.58V4.26A4.26,4.26,0,0,0,40.25,0H12.68L0,12.69v34.9a4.26,4.26,0,0,0,4.26,4.26h36A4.26,4.26,0,0,0,44.51,47.58Zm-40.86,0V15.27H11A4.27,4.27,0,0,0,15.27,11V3.65h25a.61.61,0,0,1,.61.61V47.58a.61.61,0,0,1-.61.61h-36A.61.61,0,0,1,3.65,47.58Z"/><path class="cls-1" d="M48.43,7.15v3.65a.61.61,0,0,1,.61.61V54.74a.61.61,0,0,1-.61.61h-36a.61.61,0,0,1-.61-.61H8.17A4.27,4.27,0,0,0,12.43,59h36a4.27,4.27,0,0,0,4.26-4.26V11.42A4.27,4.27,0,0,0,48.43,7.15Z"/></svg>