<svg id="Layer_1" data-name="Layer 1" xmlns="http://www.w3.org/2000/svg" viewBox="0 0 80 44.03"><defs><style>.cls-1{fill:#373a3c;}</style></defs><title>get-in-touch</title><path class="cls-1" d="M39.33,20.9c4.47,0,9.36-6.17,9.36-12.21S43.79,0,39.33,0s-9,3-9,9S34.86,20.9,39.33,20.9Z"/><path class="cls-1" d="M66,18.86c3,0,6.38-4.21,6.38-8.32S69.08,4.61,66,4.61a5.92,5.92,0,0,0-6.17,6.15C59.87,14.87,63,18.86,66,18.86Z"/><path class="cls-1" d="M72.39,19.34l-.45-.18-5.79,6.62-5.59-6.69-.6.24a13,13,0,0,0-6.26,5.34,20.66,20.66,0,0,0-5-3.05L48,21.33,39.49,31l-8.21-9.82-.87.35A20.92,20.92,0,0,0,26.11,24a13.09,13.09,0,0,0-6-5l-.45-.19-5.8,6.62L8.26,18.78l-.6.24C3.12,20.93,0,24.89,0,29.47a10,10,0,0,0,.26,2.24,32.85,32.85,0,0,0,13.45,2.62,38.87,38.87,0,0,0,5.77-.42,14.28,14.28,0,0,0,.06,6.29A48.19,48.19,0,0,0,39.28,44c7.88,0,15-1.55,20.21-4.06a14.25,14.25,0,0,0,0-5.88,38.49,38.49,0,0,0,6.47.54,32.44,32.44,0,0,0,13.77-2.77A9.83,9.83,0,0,0,80,29.76C80,25.21,76.91,21.26,72.39,19.34Z"/><path class="cls-1" d="M13.75,18.56c3,0,6.38-4.21,6.38-8.32s-3.34-5.93-6.38-5.93a5.92,5.92,0,0,0-6.17,6.15C7.58,14.57,10.7,18.56,13.75,18.56Z"/></svg>