<svg id="Layer_1" data-name="Layer 1" xmlns="http://www.w3.org/2000/svg" viewBox="0 0 71 57.85"><defs><style>.cls-1{fill:#373a3c;}</style></defs><title>upload-camera</title><path class="cls-1" d="M59.47,11.17c-4.18-.86-5.22-2.79-6.39-6.1A7.26,7.26,0,0,0,46.53,0H24.47a7.28,7.28,0,0,0-6.54,5.07c-1.16,3.31-2.2,5.24-6.38,6.1C8.78,11.73,0,12.88,0,18.7V52.28a5.58,5.58,0,0,0,5.57,5.57H65.43A5.57,5.57,0,0,0,71,52.28V18.7C71,12.88,62.24,11.73,59.47,11.17ZM35.88,53.06A19.72,19.72,0,1,1,55.59,33.34,19.74,19.74,0,0,1,35.88,53.06Z"/><path class="cls-1" d="M47.17,33.32A11.67,11.67,0,1,1,35.5,21.65,11.67,11.67,0,0,1,47.17,33.32Z"/></svg>