<svg id="Layer_1" data-name="Layer 1" xmlns="http://www.w3.org/2000/svg" viewBox="0 0 38 32.09"><defs><style>.cls-1{fill:#fff;}</style></defs><title>folder-bottom</title><path class="cls-1" d="M7.34,5.57h25V5.45A2.2,2.2,0,0,0,30.48,3H22.66S20.16,3,19,1.87C17.46.39,15.47,0,12.92,0H2.43a2.06,2.06,0,0,0-.35,0h0A2.42,2.42,0,0,0,0,2.43v24.4a1.79,1.79,0,1,0,3.59,0V8A2.44,2.44,0,0,1,6,5.57Z"/><path class="cls-1" d="M37.06,10a2.46,2.46,0,0,0-1.49-.51H10.06a2.44,2.44,0,0,0-2.44,2.44V29.66a2.44,2.44,0,0,0,2.44,2.43h25.5A2.43,2.43,0,0,0,38,29.66V11.92A2.43,2.43,0,0,0,37.06,10Z"/></svg>