<svg id="Layer_1" data-name="Layer 1" xmlns="http://www.w3.org/2000/svg" viewBox="0 0 38 33.74"><defs><style>.cls-1{fill:#fff;}</style></defs><title>home-bottom</title><path class="cls-1" d="M19,9.06,5.25,18.65l-.14.08V31A2.79,2.79,0,0,0,7.9,33.74h6.86V26.07a1.86,1.86,0,0,1,1.86-1.86h4.76a1.86,1.86,0,0,1,1.86,1.86v7.67H30A2.79,2.79,0,0,0,32.76,31V18.65h0Z"/><path class="cls-1" d="M32.76,1.86A1.86,1.86,0,0,0,30.91,0H28.18a1.85,1.85,0,0,0-1.84,1.71l6.43,4.48Z"/><path class="cls-1" d="M34.35,16.36A2.32,2.32,0,1,0,37,12.54L19,0,1,12.54a2.32,2.32,0,1,0,2.66,3.81L19,5.67Z"/></svg>