<svg id="Layer_1" data-name="Layer 1" xmlns="http://www.w3.org/2000/svg" viewBox="0 0 63 53.2"><defs><style>.cls-1{fill:#373a3c;}</style></defs><title>my-files</title><path class="cls-1" d="M12.16,9.23H53.61V9c0-2.23-1.38-4-3.09-4h-13s-4.15,0-6.12-1.9C29,.64,25.64,0,21.42,0H4a3.41,3.41,0,0,0-.58,0h0A4,4,0,0,0,0,4V44.49a3,3,0,1,0,6,0V13.27a4,4,0,0,1,4-4Z"/><path class="cls-1" d="M61.44,16.57A4.08,4.08,0,0,0,59,15.73H16.68a4,4,0,0,0-4,4v29.4a4,4,0,0,0,4,4H59a4,4,0,0,0,4-4V19.76A4,4,0,0,0,61.44,16.57Z"/></svg>